<!-- <?xml version="1.0" ?><!DOCTYPE svg  PUBLIC '-//W3C//DTD SVG 1.1//EN'  'http://www.w3.org/Graphics/SVG/1.1/DTD/svg11.dtd'><svg height="100%" style="fill-rule:evenodd;clip-rule:evenodd;stroke-linejoin:round;stroke-miterlimit:2;" version="1.1" viewBox="0 0 512 512" width="100%" xml:space="preserve" xmlns="http://www.w3.org/2000/svg" xmlns:serif="http://www.serif.com/" xmlns:xlink="http://www.w3.org/1999/xlink"><path d="M381.953,-0.001c3.073,0 9.216,0 13.824,0.512c11.264,0 26.112,1.024 32.768,2.56c10.24,2.048 19.968,5.12 27.648,9.216c9.728,4.608 17.92,10.752 25.6,18.432c7.168,7.168 13.312,15.36 17.92,25.088c4.096,7.68 7.168,17.408 9.216,27.648c1.536,6.656 2.56,21.504 3.072,32.768l0,265.729c0,3.072 0,9.216 -0.512,13.824c0,11.264 -1.024,26.112 -2.56,32.768c-2.048,10.24 -5.12,19.968 -9.216,27.648c-4.608,9.728 -10.752,17.92 -18.432,25.6c-7.168,7.168 -15.36,13.312 -25.088,17.92c-7.68,4.096 -17.408,7.168 -27.648,9.216c-6.656,1.536 -21.504,2.56 -32.768,3.072l-265.728,0c-3.072,0 -9.216,0 -13.824,-0.512c-11.264,0 -26.112,-1.024 -32.768,-2.56c-10.24,-2.048 -19.968,-5.12 -27.648,-9.216c-9.728,-4.608 -17.92,-10.752 -25.6,-18.432c-7.168,-7.168 -13.312,-15.36 -17.92,-25.088c-4.096,-7.68 -7.168,-17.408 -9.216,-27.648c-1.536,-6.656 -2.56,-21.504 -3.072,-32.768l0,-265.729c0,-3.072 0,-9.216 0.512,-13.824c0,-11.264 1.024,-26.112 2.56,-32.768c2.048,-10.24 5.12,-19.968 9.216,-27.648c4.608,-9.728 10.752,-17.92 18.432,-25.6c7.168,-7.168 15.36,-13.312 25.088,-17.92c7.68,-4.096 17.408,-7.168 27.648,-9.216c6.656,-1.536 21.503,-2.56 32.768,-3.072l265.728,0Zm8.696,122.563c-34.457,-34.486 -80.281,-53.487 -129.103,-53.507c-100.595,0 -182.468,81.841 -182.508,182.437c-0.013,32.156 8.39,63.546 24.361,91.212l-25.892,94.545l96.75,-25.37c26.657,14.535 56.67,22.194 87.216,22.207l0.075,0c100.586,0 182.465,-81.852 182.506,-182.448c0.019,-48.751 -18.946,-94.59 -53.405,-129.076Zm-129.102,280.709l-0.061,0c-27.22,-0.011 -53.917,-7.32 -77.207,-21.137l-5.539,-3.287l-57.413,15.056l15.325,-55.959l-3.608,-5.736c-15.184,-24.145 -23.203,-52.051 -23.192,-80.704c0.033,-83.611 68.083,-151.635 151.756,-151.635c40.517,0.016 78.603,15.811 107.243,44.474c28.64,28.663 44.404,66.764 44.389,107.283c-0.035,83.617 -68.083,151.645 -151.693,151.645Zm83.207,-113.573c-4.56,-2.282 -26.98,-13.311 -31.161,-14.832c-4.18,-1.521 -7.219,-2.282 -10.259,2.282c-3.041,4.564 -11.78,14.832 -14.44,17.875c-2.66,3.042 -5.32,3.423 -9.88,1.14c-4.561,-2.281 -19.254,-7.095 -36.672,-22.627c-13.556,-12.087 -22.709,-27.017 -25.369,-31.581c-2.66,-4.564 -0.283,-7.031 2,-9.304c2.051,-2.041 4.56,-5.324 6.84,-7.986c2.28,-2.662 3.04,-4.564 4.56,-7.606c1.52,-3.042 0.76,-5.705 -0.38,-7.987c-1.14,-2.282 -10.26,-24.72 -14.06,-33.848c-3.701,-8.889 -7.461,-7.686 -10.26,-7.826c-2.657,-0.132 -5.7,-0.16 -8.74,-0.16c-3.041,0 -7.98,1.141 -12.161,5.704c-4.18,4.564 -15.96,15.594 -15.96,38.032c0,22.438 16.34,44.116 18.62,47.159c2.281,3.043 32.157,49.089 77.902,68.836c10.88,4.697 19.374,7.501 25.997,9.603c10.924,3.469 20.866,2.98 28.723,1.806c8.761,-1.309 26.98,-11.029 30.781,-21.677c3.799,-10.649 3.799,-19.777 2.659,-21.678c-1.139,-1.902 -4.179,-3.043 -8.74,-5.325Z" id="WhatsApp-Logo-Icon" style="fill-rule:nonzero;"/></svg> -->
<svg xmlns="http://www.w3.org/2000/svg" width="1em" height="1em" viewBox="0 0 24 24">
  <path fill="#fefce8" d="M12.001 2c5.523 0 10 4.477 10 10s-4.477 10-10 10a9.95 9.95 0 0 1-5.03-1.355L2.005 22l1.352-4.968A9.95 9.95 0 0 1 2.001 12c0-5.523 4.477-10 10-10M8.593 7.3l-.2.008a1 1 0 0 0-.372.1a1.3 1.3 0 0 0-.294.228c-.12.113-.188.211-.261.306A2.73 2.73 0 0 0 6.9 9.62c.002.49.13.967.33 1.413c.409.902 1.082 1.857 1.97 2.742c.214.213.424.427.65.626a9.45 9.45 0 0 0 3.84 2.046l.568.087c.185.01.37-.004.556-.013a2 2 0 0 0 .833-.231a5 5 0 0 0 .383-.22q.001.002.125-.09c.135-.1.218-.171.33-.288q.126-.13.21-.302c.078-.163.156-.474.188-.733c.024-.198.017-.306.014-.373c-.004-.107-.093-.218-.19-.265l-.582-.261s-.87-.379-1.402-.621a.5.5 0 0 0-.176-.041a.48.48 0 0 0-.378.127c-.005-.002-.072.055-.795.931a.35.35 0 0 1-.368.13a1.4 1.4 0 0 1-.191-.066c-.124-.052-.167-.072-.252-.108a6 6 0 0 1-1.575-1.003c-.126-.11-.243-.23-.363-.346a6.3 6.3 0 0 1-1.02-1.268l-.059-.095a1 1 0 0 1-.102-.205c-.038-.147.061-.265.061-.265s.243-.266.356-.41c.11-.14.203-.276.263-.373c.118-.19.155-.385.093-.536q-.42-1.026-.868-2.041c-.059-.134-.234-.23-.393-.249q-.081-.01-.162-.016a3 3 0 0 0-.403.004z"/>
</svg>
